# xmcd CD database file
#
# Track frame offsets:
#	150
#	23720
#	47177
#	70750
#
# Disc length: 1255 seconds
#
# Revision: 3
# Processed by: cddbd v1.5.1PL0 Copyright (c) Steve Scherf et al.
# Submitted via: CDex 1.51
#
DISCID=2d04e504
DTITLE=大黒摩季 - アンバランス
DYEAR=1996
DGENRE=J-POP
TTITLE0=アンバランス
TTITLE1=After Blue
TTITLE2=アンバランス (Original Karaoke)
TTITLE3=After Blue (Original Karaoke)
EXTD=YEAR: 1996
EXTT0=
EXTT1=
EXTT2=
EXTT3=
PLAYORDER=
